HIERARCHY
ROOT hip
{
  OFFSET 0 0 0
  CHANNELS 6 Xposition Yposition Zposition Zrotation Yrotation Xrotation
  JOINT abdomen
  {
    OFFSET 0 20.6881 -0.73152
    CHANNELS 3 Zrotation Xrotation Yrotation
    JOINT chest
    {
      OFFSET 0 11.7043 -0.48768
      CHANNELS 3 Zrotation Xrotation Yrotation
      JOINT neck
      {
        OFFSET 0 22.1894 -2.19456
        CHANNELS 3 Zrotation Xrotation Yrotation
        JOINT head
        {
          OFFSET -0.24384 7.07133 1.2192
          CHANNELS 3 Zrotation Xrotation Yrotation
          JOINT leftEye
          {
            OFFSET 4.14528 8.04674 8.04672
            CHANNELS 3 Zrotation Xrotation Yrotation
            End Site
            {
              OFFSET 1 0 0
            }
          }
          JOINT rightEye
          {
            OFFSET -3.6576 8.04674 8.04672
            CHANNELS 3 Zrotation Xrotation Yrotation
            End Site
            {
              OFFSET 1 0 0
            }
          }
        }
      }
      JOINT rCollar
      {
        OFFSET -2.68224 19.2634 -4.8768
        CHANNELS 3 Zrotation Xrotation Yrotation
        JOINT rShldr
        {
          OFFSET -8.77824 -1.95073 1.46304
          CHANNELS 3 Zrotation Xrotation Yrotation
          JOINT rForeArm
          {
            OFFSET -28.1742 -1.7115 0.48768
            CHANNELS 3 Zrotation Xrotation Yrotation
            JOINT rHand
            {
              OFFSET -22.5879 0.773209 7.07136
              CHANNELS 3 Zrotation Xrotation Yrotation
              JOINT rThumb1
              {
                OFFSET -1.2192 -0.487915 3.41376
                CHANNELS 3 Zrotation Xrotation Yrotation
                JOINT rThumb2
                {
                  OFFSET -3.37035 -0.52449 3.41376
                  CHANNELS 3 Zrotation Xrotation Yrotation
                  End Site
                  {
                    OFFSET -1.78271 -1.18214 1.43049
                  }
                }
              }
              JOINT rIndex1
              {
                OFFSET -7.75947 0.938293 5.60832
                CHANNELS 3 Zrotation Xrotation Yrotation
                JOINT rIndex2
                {
                  OFFSET -2.54057 -0.884171 1.56538
                  CHANNELS 3 Zrotation Xrotation Yrotation
                  End Site
                  {
                    OFFSET -1.62519 -0.234802 1.16502
                  }
                }
              }
              JOINT rMid1
              {
                OFFSET -8.24714 1.18213 3.41376
                CHANNELS 3 Zrotation Xrotation Yrotation
                JOINT rMid2
                {
                  OFFSET -3.10165 -0.590103 1.0647
                  CHANNELS 3 Zrotation Xrotation Yrotation
                  End Site
                  {
                    OFFSET -2.48547 -0.328903 0.83742
                  }
                }
              }
              JOINT rRing1
              {
                OFFSET -8.82822 0.546677 1.51678
                CHANNELS 3 Zrotation Xrotation Yrotation
                JOINT rRing2
                {
                  OFFSET -2.60934 -0.819778 -0.0198488
                  CHANNELS 3 Zrotation Xrotation Yrotation
                  End Site
                  {
                    OFFSET -2.33842 -0.294052 0.168128
                  }
                }
              }
              JOINT rPinky1
              {
                OFFSET -8.27202 -0.0477905 -0.4584
                CHANNELS 3 Zrotation Xrotation Yrotation
                JOINT rPinky2
                {
                  OFFSET -1.82734 -0.647385 -0.700984
                  CHANNELS 3 Zrotation Xrotation Yrotation
                  End Site
                  {
                    OFFSET -1.69225 -0.51767 -0.607171
                  }
                }
              }
            }
          }
        }
      }
      JOINT lCollar
      {
        OFFSET 2.68224 19.2634 -4.8768
        CHANNELS 3 Zrotation Xrotation Yrotation
        JOINT lShldr
        {
          OFFSET 8.77824 -1.95073 1.46304
          CHANNELS 3 Zrotation Xrotation Yrotation
          JOINT lForeArm
          {
            OFFSET 28.1742 -1.7115 0.48768
            CHANNELS 3 Zrotation Xrotation Yrotation
            JOINT lHand
            {
              OFFSET 22.5879 0.773209 7.07136
              CHANNELS 3 Zrotation Xrotation Yrotation
              JOINT lThumb1
              {
                OFFSET 1.2192 -0.487915 3.41376
                CHANNELS 3 Zrotation Xrotation Yrotation
                JOINT lThumb2
                {
                  OFFSET 3.37035 -0.52449 3.41376
                  CHANNELS 3 Zrotation Xrotation Yrotation
                  End Site
                  {
                    OFFSET 1.78271 -1.18214 1.43049
                  }
                }
              }
              JOINT lIndex1
              {
                OFFSET 7.75947 0.938293 5.60832
                CHANNELS 3 Zrotation Xrotation Yrotation
                JOINT lIndex2
                {
                  OFFSET 2.54057 -0.884171 1.56538
                  CHANNELS 3 Zrotation Xrotation Yrotation
                  End Site
                  {
                    OFFSET 1.62519 -0.234802 1.16502
                  }
                }
              }
              JOINT lMid1
              {
                OFFSET 8.24714 1.18213 3.41376
                CHANNELS 3 Zrotation Xrotation Yrotation
                JOINT lMid2
                {
                  OFFSET 3.10165 -0.590103 1.0647
                  CHANNELS 3 Zrotation Xrotation Yrotation
                  End Site
                  {
                    OFFSET 2.48547 -0.328903 0.83742
                  }
                }
              }
              JOINT lRing1
              {
                OFFSET 8.82822 0.546677 1.51678
                CHANNELS 3 Zrotation Xrotation Yrotation
                JOINT lRing2
                {
                  OFFSET 2.60934 -0.819778 -0.0198488
                  CHANNELS 3 Zrotation Xrotation Yrotation
                  End Site
                  {
                    OFFSET 2.33842 -0.294052 0.168128
                  }
                }
              }
              JOINT lPinky1
              {
                OFFSET 8.27202 -0.0477905 -0.4584
                CHANNELS 3 Zrotation Xrotation Yrotation
                JOINT lPinky2
                {
                  OFFSET 1.82734 -0.647385 -0.700984
                  CHANNELS 3 Zrotation Xrotation Yrotation
                  End Site
                  {
                    OFFSET 1.69225 -0.51767 -0.607171
                  }
                }
              }
            }
          }
        }
      }
    }
  }
  JOINT rButtock
  {
    OFFSET -8.77824 4.35084 1.2192
    CHANNELS 3 Zrotation Xrotation Yrotation
    JOINT rThigh
    {
      OFFSET 0 -1.70687 -2.19456
      CHANNELS 3 Zrotation Xrotation Yrotation
      JOINT rShin
      {
        OFFSET 0 -36.8199 0.73152
        CHANNELS 3 Zrotation Xrotation Yrotation
        JOINT rFoot
        {
          OFFSET 0.73152 -45.1104 -5.12064
          CHANNELS 3 Zrotation Xrotation Yrotation
          End Site
          {
            OFFSET -1.1221 -3.69964 12.103
          }
        }
      }
    }
  }
  JOINT lButtock
  {
    OFFSET 8.77824 4.35084 1.2192
    CHANNELS 3 Zrotation Xrotation Yrotation
    JOINT lThigh
    {
      OFFSET 0 -1.70687 -2.19456
      CHANNELS 3 Zrotation Xrotation Yrotation
      JOINT lShin
      {
        OFFSET 0 -36.8199 0.73152
        CHANNELS 3 Zrotation Xrotation Yrotation
        JOINT lFoot
        {
          OFFSET -0.73152 -45.1104 -5.12064
          CHANNELS 3 Zrotation Xrotation Yrotation
          End Site
          {
            OFFSET 1.1221 -3.69964 12.103
          }
        }
      }
    }
  }
}
MOTION
Frames:	4
Frame Time:	0.00833333
2.4362000000000004 56.687200000000004 194.89939999999999 0.224235 -51.989938 -2.947666 -6.094713 14.040564 -23.530499 2.948801 -12.050032 45.99821 -11.560137 19.559892 -76.419201 28.247853 10.729493 100.508622 0.004347 0.0 0.000377 -0.001368 -0.0 0.000571 -155.504031 -3.514579 161.838392 -50.244184 9.936254 -6.570691 21.98087 8.911843 -152.693945 -143.541001 39.232823 122.409701 -169.146559 -6.826104 89.915916 -110.315655 12.449695 49.178263 19.568137 -35.040432 -5.985194 174.401671 -46.238137 101.865462 173.124434 -66.297815 137.616164 167.336774 -63.982427 132.657893 -0.000451 0.022507 0.00802 -4.291544 -81.423336 -25.118867 26.856916 80.01143 10.21623 -24.304353 -39.553347 -24.343698 155.614283 -4.236454 -161.990826 -142.771254 11.627509 155.975943 -171.987924 27.482 -43.635059 -168.01218 -17.50052 -144.426788 173.582243 -11.253568 -89.899426 -130.599546 -57.021239 -93.925033 -60.461509 -70.523714 -15.710737 118.760278 36.66239 -98.724688 4.789846 12.797221 -3.006294 163.482668 -5.564436 -143.429568 0.00075 0.022466 -0.00815 -9.078043 14.186342 -1.884581 116.537881 -37.224637 114.498535 4.937177 -17.676406 8.398568 -179.998659 75.747939 -0.000917 160.759608 35.969926 -149.27993 -77.974749 -63.980554 40.841827 38.277193 -9.753619 43.079628 -0.002587 -0.000182 -0.002587 43.920261 -42.46063 54.968808 8.893139 50.094116 -98.947879 -21.798278 14.422229 89.596049
2.4379999999999997 56.3349 195.93339999999998 0.644773 -53.20854 -3.528522 -5.608716 9.748429 -149.886922 6.326119 5.511117 172.346493 9.597749 19.874567 100.079932 -24.119339 8.539799 -73.305222 -0.001636 0.0 -0.001765 0.004078 -0.0 -0.001957 2.388547 -17.550875 -3.544282 -102.939518 -15.084457 -176.796331 178.918869 -48.612632 -70.698495 -13.932417 -37.973329 -9.128903 6.464005 -6.452532 -0.635033 -2.106014 0.641934 -2.655777 -4.706764 7.224278 2.853381 -7.485813 22.690296 6.613661 -152.826985 14.793388 138.514884 -153.886063 19.912349 138.359939 0.005909 1.771311 0.556949 -155.564945 -1.205488 171.993988 -1.147808 -2.914424 -1.067323 -146.626067 9.554748 -143.184197 143.620291 38.233543 -148.081014 49.561103 -6.069291 -11.137539 -1.983692 -2.872148 136.546692 -163.419052 -29.810468 -141.388209 4.03574 3.93119 -0.755059 41.886092 25.930163 -39.307885 152.254165 -18.832927 -121.411957 11.592786 35.953508 -2.82956 0.059044 0.167495 -0.03371 55.973582 62.340603 -49.201475 -0.004192 1.771233 -0.557497 -4.643213 -74.99083 15.381941 -2.707529 7.52531 -2.471246 -43.190539 83.168171 6.066133 -179.997319 75.750819 -0.002766 159.839033 35.756604 -147.857994 -73.901548 -57.609489 110.692826 -91.132441 12.206151 -7.385493 0.0 -0.001177 0.000681 44.620218 -41.13828 33.70182 -0.295741 56.401479 113.264611 -126.913072 -10.905184 98.629204
2.4408 55.9384 196.9084 1.037974 -54.136847 -4.07467 -6.580765 14.211997 -0.0 -1.743767 -12.391467 22.948241 6.644927 13.22423 57.983766 -16.481526 -8.33355 -32.97263 -0.000438 -0.0 0.002267 -0.000438 -0.0 0.002267 -14.147863 43.061674 15.996148 -9.426784 36.109498 80.252596 41.702767 -8.648738 139.038576 -25.236469 -3.237339 4.44662 -85.829492 38.630719 47.955373 -133.325868 -22.213492 79.72825 60.462538 -70.523254 15.712096 -1.58124 26.644609 2.835511 -158.522545 -0.192183 142.14461 179.922328 -48.680567 140.899062 -145.097826 -1.605325 -178.624303 10.392307 0.369887 -8.948062 -11.662696 -23.130352 -11.072065 -158.722634 54.106018 -149.866937 -4.239203 -44.742794 8.64743 105.38616 -10.246088 175.354512 -95.818941 -28.71856 103.274412 160.958118 56.289104 -136.77379 0.441857 0.43522 -0.06871 127.907118 -23.067359 -113.655983 -47.868898 -65.34623 -6.096018 3.300459 27.958704 -4.330366 10.97583 25.789753 -7.640796 42.020694 58.55208 -36.152235 145.100155 -1.520456 178.651034 15.957181 -68.336479 37.228377 141.24164 0.678814 138.263375 -1.689505 -2.093611 2.626178 179.903736 75.750717 0.074196 157.084936 35.823571 124.909465 87.99362 -25.251261 -170.597314 72.843218 32.217687 37.041011 179.99306 75.749179 0.004748 -144.235234 21.111053 -37.608663 -36.177781 50.13878 166.673235 -67.324302 -51.663111 165.521685
2.4424 55.5198 197.81640000000002 1.375313 -54.788798 -4.567233 -6.450516 14.289884 1.337052 -2.128918 -12.357761 21.646446 8.189721 25.200954 130.287303 -22.14169 21.436428 -99.622075 0.001736 -0.0 -0.002899 -0.003978 0.0 -0.002681 -155.416828 -2.951472 161.718542 -50.879245 8.112852 1.194532 -175.826954 -24.812619 -66.861148 -23.161712 -62.091509 -21.157865 -173.770346 -11.440056 89.891592 -38.699221 -23.324855 4.406029 -162.635149 -37.465788 122.649796 -175.727341 -43.819524 114.747338 -20.60297 39.534039 15.767416 -7.201777 26.206469 6.09227 -0.00161 -0.018275 -0.007321 -15.615347 69.589027 28.530719 12.634443 42.933945 10.529724 -169.097833 72.855737 -147.006451 3.76783 17.920979 -4.641309 -76.063981 -13.563476 -48.625328 78.428048 -27.566044 -62.582388 -18.338801 -40.045561 -9.93032 95.360857 37.751024 -54.682822 -10.436074 -23.913915 -24.152759 100.825335 37.734221 -85.161689 172.159078 -24.110756 -115.048023 10.975254 25.790106 -7.639438 1.223423 12.651546 -2.191979 0.000131 0.06379 -0.019952 52.809032 -86.670102 74.304569 0.166902 -0.437115 0.153729 85.207076 -53.923737 84.734559 179.990112 75.749434 0.006766 158.726486 35.838481 -111.137022 -89.809151 -17.469338 -165.476982 -96.275681 -37.747354 -156.635468 -0.0 0.000208 0.000925 44.86384 -40.144478 57.065286 31.620391 54.77613 92.748995 -128.815451 -1.676899 114.133669
